<svg xmlns="http://www.w3.org/2000/svg" viewBox="0 0 1920 1080" role="img" aria-labelledby="title desc">
  <title id="title">Fluxo de telas — Administrador</title><desc id="desc">Caminho do Administrador pelo SIGE Desk.</desc>
  <defs><marker id="a" markerWidth="10" markerHeight="10" refX="8" refY="3" orient="auto"><path d="M0,0 L0,6 L9,3 z" fill="#52616b"/></marker><style>text{font-family:Inter,Arial,sans-serif;fill:#112d42}.title{font-size:30px;font-weight:700}.sub{font-size:16px;fill:#5f7280}.code{font-size:13px;font-weight:700;fill:#087ca7}.node{fill:#fff;stroke:#b7c6d0;stroke-width:2}.login{fill:#e7f4fb;stroke:#279ac5}.home{fill:#f0edff;stroke:#8a75de}.ticket{fill:#e8f8f5;stroke:#31a99b}.action{fill:#fff8e7;stroke:#e6a930}.admin{fill:#f6efff;stroke:#9f7aea}.edge{fill:none;stroke:#52616b;stroke-width:2;marker-end:url(#a)}.edgeLabel{font-size:12px;fill:#40515d}.group{font-size:14px;font-weight:700;fill:#5f7280}</style></defs>
  <rect width="1920" height="1080" fill="#f7fafc"/><rect x="30" y="25" width="1860" height="1030" rx="20" fill="#fff" stroke="#dce6ed"/><text x="70" y="82" class="title">Fluxo de telas — Administrador</text><text x="70" y="112" class="sub">Supervisão completa da operação, cadastros e configurações</text>
  <path class="edge" d="M960 215V270"/><text x="982" y="247" class="edgeLabel">autenticar</text>
  <path class="edge" d="M860 360C720 392 210 400 180 495"/><text x="440" y="400" class="edgeLabel">consultar operação</text><path class="edge" d="M895 360C800 400 430 405 400 495"/><text x="590" y="428" class="edgeLabel">abrir ticket</text><path class="edge" d="M940 360C910 405 650 410 635 495"/><text x="760" y="428" class="edgeLabel">acompanhar alertas</text><path class="edge" d="M980 360C1020 405 900 410 865 495"/><text x="930" y="428" class="edgeLabel">analisar indicadores</text><path class="edge" d="M1015 360C1120 400 1110 410 1095 495"/><text x="1080" y="428" class="edgeLabel">manter clientes</text><path class="edge" d="M1050 360C1240 395 1350 405 1325 495"/><text x="1240" y="428" class="edgeLabel">manter campanhas</text><path class="edge" d="M1060 350C1390 370 1570 405 1555 495"/><text x="1490" y="400" class="edgeLabel">configurar tipos</text><path class="edge" d="M1070 340C1510 355 1770 405 1780 495"/><text x="1690" y="380" class="edgeLabel">configurar SLA</text>
  <path class="edge" d="M180 585C290 660 440 670 560 735"/><text x="340" y="660" class="edgeLabel">abrir demanda</text><path class="edge" d="M180 585C150 810 420 820 450 885"/><text x="190" y="800" class="edgeLabel">classificar ticket</text><path class="edge" d="M400 585C440 650 510 680 570 735"/><text x="450" y="650" class="edgeLabel">enviar solicitação</text><path class="edge" d="M635 585C650 650 645 680 650 735"/><text x="670" y="650" class="edgeLabel">abrir evento</text><path class="edge" d="M590 820C535 845 495 860 480 885"/><text x="520" y="850" class="edgeLabel">classificar e atribuir</text><path class="edge" d="M560 930C640 900 700 875 700 820"/><text x="635" y="910" class="edgeLabel">encaminhar execução</text>
  <rect class="node login" x="810" y="125" width="300" height="90" rx="14"/><text x="840" y="160" class="code">T01</text><text x="840" y="190" font-size="18">Acessar o ambiente</text><rect class="node home" x="810" y="270" width="300" height="90" rx="14"/><text x="840" y="305" class="code">T02</text><text x="840" y="335" font-size="20" font-weight="700">Visão geral</text>
  <text x="80" y="450" class="group">Operação</text><rect class="node ticket" x="80" y="495" width="200" height="90" rx="14"/><text x="105" y="530" class="code">T03</text><text x="105" y="560" font-size="18">Tickets</text><rect class="node action" x="300" y="495" width="200" height="90" rx="14"/><text x="325" y="530" class="code">T04</text><text x="325" y="560" font-size="18">Novo ticket</text><rect class="node ticket" x="535" y="495" width="200" height="90" rx="14"/><text x="560" y="530" class="code">T09</text><text x="560" y="560" font-size="18">Notificações</text><rect class="node ticket" x="765" y="495" width="200" height="90" rx="14"/><text x="790" y="530" class="code">T10</text><text x="790" y="560" font-size="18">Relatórios</text>
  <text x="1010" y="450" class="group">Cadastros e configurações</text><rect class="node admin" x="995" y="495" width="190" height="90" rx="14"/><text x="1020" y="530" class="code">T11</text><text x="1020" y="560" font-size="18">Clientes</text><rect class="node admin" x="1225" y="495" width="190" height="90" rx="14"/><text x="1250" y="530" class="code">T12</text><text x="1250" y="560" font-size="18">Campanhas</text><rect class="node admin" x="1455" y="495" width="190" height="90" rx="14"/><text x="1480" y="530" class="code">T13</text><text x="1480" y="560" font-size="18">Tipos de demanda</text><rect class="node admin" x="1680" y="495" width="170" height="90" rx="14"/><text x="1705" y="530" class="code">T14</text><text x="1705" y="560" font-size="17">Config. SLA</text><rect class="node admin" x="1420" y="140" width="300" height="90" rx="14"/><text x="1445" y="175" class="code">T15</text><text x="1445" y="205" font-size="18">Usuários e perfis</text><path class="edge" d="M1110 315C1230 300 1340 245 1420 185"/><text x="1230" y="265" class="edgeLabel">administrar acessos</text>
  <rect class="node ticket" x="560" y="735" width="270" height="85" rx="14"/><text x="585" y="770" class="code">T05</text><text x="585" y="800" font-size="18">Detalhe do ticket</text><rect class="node action" x="400" y="885" width="190" height="75" rx="14"/><text x="425" y="915" class="code">T06</text><text x="425" y="943" font-size="18">Triagem</text>
</svg>
